<mxfile host="app.diagrams.net" modified="2024-06-25T20:25:37.693Z" agent="Mozilla/5.0 (Windows NT 10.0; Win64; x64) AppleWebKit/537.36 (KHTML, like Gecko) Chrome/126.0.0.0 Safari/537.36 Edg/126.0.0.0" etag="iNRmwXLv1OHlMkhTEYwN" version="24.6.2" type="device">
  <diagram id="C5RBs43oDa-KdzZeNtuy" name="Page-1">
    <mxGraphModel dx="4125" dy="2617" grid="1" gridSize="10" guides="1" tooltips="1" connect="1" arrows="1" fold="1" page="1" pageScale="1" pageWidth="827" pageHeight="1169" math="0" shadow="0">
      <root>
        <mxCell id="WIyWlLk6GJQsqaUBKTNV-0" />
        <mxCell id="WIyWlLk6GJQsqaUBKTNV-1" parent="WIyWlLk6GJQsqaUBKTNV-0" />
        <mxCell id="zkfFHV4jXpPFQw0GAbJ--0" value="User" style="swimlane;fontStyle=2;align=center;verticalAlign=top;childLayout=stackLayout;horizontal=1;startSize=26;horizontalStack=0;resizeParent=1;resizeLast=0;collapsible=1;marginBottom=0;rounded=0;shadow=0;strokeWidth=1;" parent="WIyWlLk6GJQsqaUBKTNV-1" vertex="1">
          <mxGeometry x="280" y="-60" width="310" height="368" as="geometry">
            <mxRectangle x="230" y="140" width="160" height="26" as="alternateBounds" />
          </mxGeometry>
        </mxCell>
        <mxCell id="zkfFHV4jXpPFQw0GAbJ--1" value="-Name: string" style="text;align=left;verticalAlign=top;spacingLeft=4;spacingRight=4;overflow=hidden;rotatable=0;points=[[0,0.5],[1,0.5]];portConstraint=eastwest;" parent="zkfFHV4jXpPFQw0GAbJ--0" vertex="1">
          <mxGeometry y="26" width="310" height="26" as="geometry" />
        </mxCell>
        <mxCell id="zkfFHV4jXpPFQw0GAbJ--2" value="-PhoneNum: string" style="text;align=left;verticalAlign=top;spacingLeft=4;spacingRight=4;overflow=hidden;rotatable=0;points=[[0,0.5],[1,0.5]];portConstraint=eastwest;rounded=0;shadow=0;html=0;" parent="zkfFHV4jXpPFQw0GAbJ--0" vertex="1">
          <mxGeometry y="52" width="310" height="26" as="geometry" />
        </mxCell>
        <mxCell id="zkfFHV4jXpPFQw0GAbJ--3" value="-Email: string" style="text;align=left;verticalAlign=top;spacingLeft=4;spacingRight=4;overflow=hidden;rotatable=0;points=[[0,0.5],[1,0.5]];portConstraint=eastwest;rounded=0;shadow=0;html=0;" parent="zkfFHV4jXpPFQw0GAbJ--0" vertex="1">
          <mxGeometry y="78" width="310" height="26" as="geometry" />
        </mxCell>
        <mxCell id="zkfFHV4jXpPFQw0GAbJ--4" value="" style="line;html=1;strokeWidth=1;align=left;verticalAlign=middle;spacingTop=-1;spacingLeft=3;spacingRight=3;rotatable=0;labelPosition=right;points=[];portConstraint=eastwest;" parent="zkfFHV4jXpPFQw0GAbJ--0" vertex="1">
          <mxGeometry y="104" width="310" height="8" as="geometry" />
        </mxCell>
        <mxCell id="KOUvDkR0qCRG5-3HSuHc-98" value="+ User()" style="text;strokeColor=none;fillColor=none;align=left;verticalAlign=top;spacingLeft=4;spacingRight=4;overflow=hidden;rotatable=0;points=[[0,0.5],[1,0.5]];portConstraint=eastwest;whiteSpace=wrap;html=1;" parent="zkfFHV4jXpPFQw0GAbJ--0" vertex="1">
          <mxGeometry y="112" width="310" height="26" as="geometry" />
        </mxCell>
        <mxCell id="U3Yz26fhHiPG21KcbCNh-0" value="+ User(name: string, phoneNum: string, email: string)" style="text;strokeColor=none;fillColor=none;align=left;verticalAlign=top;spacingLeft=4;spacingRight=4;overflow=hidden;rotatable=0;points=[[0,0.5],[1,0.5]];portConstraint=eastwest;whiteSpace=wrap;html=1;" vertex="1" parent="zkfFHV4jXpPFQw0GAbJ--0">
          <mxGeometry y="138" width="310" height="22" as="geometry" />
        </mxCell>
        <mxCell id="KOUvDkR0qCRG5-3HSuHc-99" value="+ ~User()" style="text;strokeColor=none;fillColor=none;align=left;verticalAlign=top;spacingLeft=4;spacingRight=4;overflow=hidden;rotatable=0;points=[[0,0.5],[1,0.5]];portConstraint=eastwest;whiteSpace=wrap;html=1;" parent="zkfFHV4jXpPFQw0GAbJ--0" vertex="1">
          <mxGeometry y="160" width="310" height="26" as="geometry" />
        </mxCell>
        <mxCell id="KOUvDkR0qCRG5-3HSuHc-87" value="+ getName(): string" style="text;strokeColor=none;fillColor=none;align=left;verticalAlign=top;spacingLeft=4;spacingRight=4;overflow=hidden;rotatable=0;points=[[0,0.5],[1,0.5]];portConstraint=eastwest;whiteSpace=wrap;html=1;" parent="zkfFHV4jXpPFQw0GAbJ--0" vertex="1">
          <mxGeometry y="186" width="310" height="26" as="geometry" />
        </mxCell>
        <mxCell id="KOUvDkR0qCRG5-3HSuHc-86" value="+ setName(name: string): void" style="text;strokeColor=none;fillColor=none;align=left;verticalAlign=top;spacingLeft=4;spacingRight=4;overflow=hidden;rotatable=0;points=[[0,0.5],[1,0.5]];portConstraint=eastwest;whiteSpace=wrap;html=1;" parent="zkfFHV4jXpPFQw0GAbJ--0" vertex="1">
          <mxGeometry y="212" width="310" height="26" as="geometry" />
        </mxCell>
        <mxCell id="KOUvDkR0qCRG5-3HSuHc-89" value="+ getPhoneNum(): string" style="text;strokeColor=none;fillColor=none;align=left;verticalAlign=top;spacingLeft=4;spacingRight=4;overflow=hidden;rotatable=0;points=[[0,0.5],[1,0.5]];portConstraint=eastwest;whiteSpace=wrap;html=1;" parent="zkfFHV4jXpPFQw0GAbJ--0" vertex="1">
          <mxGeometry y="238" width="310" height="26" as="geometry" />
        </mxCell>
        <mxCell id="KOUvDkR0qCRG5-3HSuHc-85" value="+ setPhoneNum(phoneNumber: string): void&amp;nbsp;" style="text;strokeColor=none;fillColor=none;align=left;verticalAlign=top;spacingLeft=4;spacingRight=4;overflow=hidden;rotatable=0;points=[[0,0.5],[1,0.5]];portConstraint=eastwest;whiteSpace=wrap;html=1;" parent="zkfFHV4jXpPFQw0GAbJ--0" vertex="1">
          <mxGeometry y="264" width="310" height="26" as="geometry" />
        </mxCell>
        <mxCell id="KOUvDkR0qCRG5-3HSuHc-90" value="+ getEmail(): string" style="text;strokeColor=none;fillColor=none;align=left;verticalAlign=top;spacingLeft=4;spacingRight=4;overflow=hidden;rotatable=0;points=[[0,0.5],[1,0.5]];portConstraint=eastwest;whiteSpace=wrap;html=1;" parent="zkfFHV4jXpPFQw0GAbJ--0" vertex="1">
          <mxGeometry y="290" width="310" height="26" as="geometry" />
        </mxCell>
        <mxCell id="KOUvDkR0qCRG5-3HSuHc-88" value="+ setEmail(email: string)): void" style="text;strokeColor=none;fillColor=none;align=left;verticalAlign=top;spacingLeft=4;spacingRight=4;overflow=hidden;rotatable=0;points=[[0,0.5],[1,0.5]];portConstraint=eastwest;whiteSpace=wrap;html=1;" parent="zkfFHV4jXpPFQw0GAbJ--0" vertex="1">
          <mxGeometry y="316" width="310" height="26" as="geometry" />
        </mxCell>
        <mxCell id="U3Yz26fhHiPG21KcbCNh-1" value="+ displayUser(): void" style="text;strokeColor=none;fillColor=none;align=left;verticalAlign=top;spacingLeft=4;spacingRight=4;overflow=hidden;rotatable=0;points=[[0,0.5],[1,0.5]];portConstraint=eastwest;whiteSpace=wrap;html=1;" vertex="1" parent="zkfFHV4jXpPFQw0GAbJ--0">
          <mxGeometry y="342" width="310" height="26" as="geometry" />
        </mxCell>
        <mxCell id="zkfFHV4jXpPFQw0GAbJ--6" value="Customer" style="swimlane;fontStyle=0;align=center;verticalAlign=top;childLayout=stackLayout;horizontal=1;startSize=26;horizontalStack=0;resizeParent=1;resizeLast=0;collapsible=1;marginBottom=0;rounded=0;shadow=0;strokeWidth=1;" parent="WIyWlLk6GJQsqaUBKTNV-1" vertex="1">
          <mxGeometry x="-40" y="400" width="300" height="190" as="geometry">
            <mxRectangle x="130" y="380" width="160" height="26" as="alternateBounds" />
          </mxGeometry>
        </mxCell>
        <mxCell id="KOUvDkR0qCRG5-3HSuHc-50" value="- reservation: Reservation" style="text;strokeColor=none;fillColor=none;align=left;verticalAlign=top;spacingLeft=4;spacingRight=4;overflow=hidden;rotatable=0;points=[[0,0.5],[1,0.5]];portConstraint=eastwest;whiteSpace=wrap;html=1;" parent="zkfFHV4jXpPFQw0GAbJ--6" vertex="1">
          <mxGeometry y="26" width="300" height="26" as="geometry" />
        </mxCell>
        <mxCell id="zkfFHV4jXpPFQw0GAbJ--9" value="" style="line;html=1;strokeWidth=1;align=left;verticalAlign=middle;spacingTop=-1;spacingLeft=3;spacingRight=3;rotatable=0;labelPosition=right;points=[];portConstraint=eastwest;" parent="zkfFHV4jXpPFQw0GAbJ--6" vertex="1">
          <mxGeometry y="52" width="300" height="8" as="geometry" />
        </mxCell>
        <mxCell id="KOUvDkR0qCRG5-3HSuHc-100" value="+ Customer()" style="text;strokeColor=none;fillColor=none;align=left;verticalAlign=top;spacingLeft=4;spacingRight=4;overflow=hidden;rotatable=0;points=[[0,0.5],[1,0.5]];portConstraint=eastwest;whiteSpace=wrap;html=1;" parent="zkfFHV4jXpPFQw0GAbJ--6" vertex="1">
          <mxGeometry y="60" width="300" height="26" as="geometry" />
        </mxCell>
        <mxCell id="KOUvDkR0qCRG5-3HSuHc-101" value="+ ~Customer()" style="text;strokeColor=none;fillColor=none;align=left;verticalAlign=top;spacingLeft=4;spacingRight=4;overflow=hidden;rotatable=0;points=[[0,0.5],[1,0.5]];portConstraint=eastwest;whiteSpace=wrap;html=1;" parent="zkfFHV4jXpPFQw0GAbJ--6" vertex="1">
          <mxGeometry y="86" width="300" height="26" as="geometry" />
        </mxCell>
        <mxCell id="U3Yz26fhHiPG21KcbCNh-2" value="+ Customer(name: string, phoneNum: string, email: string)" style="text;strokeColor=none;fillColor=none;align=left;verticalAlign=top;spacingLeft=4;spacingRight=4;overflow=hidden;rotatable=0;points=[[0,0.5],[1,0.5]];portConstraint=eastwest;whiteSpace=wrap;html=1;" vertex="1" parent="zkfFHV4jXpPFQw0GAbJ--6">
          <mxGeometry y="112" width="300" height="22" as="geometry" />
        </mxCell>
        <mxCell id="OwCVX45-KJhizJOx3Ec8-1" value="+ getReservation():Reservation*" style="text;strokeColor=none;fillColor=none;align=left;verticalAlign=top;spacingLeft=4;spacingRight=4;overflow=hidden;rotatable=0;points=[[0,0.5],[1,0.5]];portConstraint=eastwest;whiteSpace=wrap;html=1;" parent="zkfFHV4jXpPFQw0GAbJ--6" vertex="1">
          <mxGeometry y="134" width="300" height="26" as="geometry" />
        </mxCell>
        <mxCell id="zkfFHV4jXpPFQw0GAbJ--10" value="+ setReservation(r: Reservarion*): void" style="text;align=left;verticalAlign=top;spacingLeft=4;spacingRight=4;overflow=hidden;rotatable=0;points=[[0,0.5],[1,0.5]];portConstraint=eastwest;fontStyle=0" parent="zkfFHV4jXpPFQw0GAbJ--6" vertex="1">
          <mxGeometry y="160" width="300" height="26" as="geometry" />
        </mxCell>
        <mxCell id="zkfFHV4jXpPFQw0GAbJ--12" value="" style="endArrow=block;endSize=10;endFill=0;shadow=0;strokeWidth=1;rounded=0;curved=0;edgeStyle=elbowEdgeStyle;elbow=vertical;" parent="WIyWlLk6GJQsqaUBKTNV-1" source="zkfFHV4jXpPFQw0GAbJ--6" target="zkfFHV4jXpPFQw0GAbJ--0" edge="1">
          <mxGeometry width="160" relative="1" as="geometry">
            <mxPoint x="200" y="203" as="sourcePoint" />
            <mxPoint x="200" y="203" as="targetPoint" />
          </mxGeometry>
        </mxCell>
        <mxCell id="zkfFHV4jXpPFQw0GAbJ--13" value="Manager" style="swimlane;fontStyle=0;align=center;verticalAlign=top;childLayout=stackLayout;horizontal=1;startSize=26;horizontalStack=0;resizeParent=1;resizeLast=0;collapsible=1;marginBottom=0;rounded=0;shadow=0;strokeWidth=1;" parent="WIyWlLk6GJQsqaUBKTNV-1" vertex="1">
          <mxGeometry x="625" y="400" width="325" height="140" as="geometry">
            <mxRectangle x="330" y="360" width="170" height="26" as="alternateBounds" />
          </mxGeometry>
        </mxCell>
        <mxCell id="zkfFHV4jXpPFQw0GAbJ--14" value="- restaurant: Restaurant" style="text;align=left;verticalAlign=top;spacingLeft=4;spacingRight=4;overflow=hidden;rotatable=0;points=[[0,0.5],[1,0.5]];portConstraint=eastwest;" parent="zkfFHV4jXpPFQw0GAbJ--13" vertex="1">
          <mxGeometry y="26" width="325" height="26" as="geometry" />
        </mxCell>
        <mxCell id="zkfFHV4jXpPFQw0GAbJ--15" value="" style="line;html=1;strokeWidth=1;align=left;verticalAlign=middle;spacingTop=-1;spacingLeft=3;spacingRight=3;rotatable=0;labelPosition=right;points=[];portConstraint=eastwest;" parent="zkfFHV4jXpPFQw0GAbJ--13" vertex="1">
          <mxGeometry y="52" width="325" height="8" as="geometry" />
        </mxCell>
        <mxCell id="KOUvDkR0qCRG5-3HSuHc-118" value="+ Manager()" style="text;strokeColor=none;fillColor=none;align=left;verticalAlign=top;spacingLeft=4;spacingRight=4;overflow=hidden;rotatable=0;points=[[0,0.5],[1,0.5]];portConstraint=eastwest;whiteSpace=wrap;html=1;" parent="zkfFHV4jXpPFQw0GAbJ--13" vertex="1">
          <mxGeometry y="60" width="325" height="26" as="geometry" />
        </mxCell>
        <mxCell id="U3Yz26fhHiPG21KcbCNh-4" value="+ Manager(name: string, phoneNum: string, email: string)" style="text;strokeColor=none;fillColor=none;align=left;verticalAlign=top;spacingLeft=4;spacingRight=4;overflow=hidden;rotatable=0;points=[[0,0.5],[1,0.5]];portConstraint=eastwest;whiteSpace=wrap;html=1;" vertex="1" parent="zkfFHV4jXpPFQw0GAbJ--13">
          <mxGeometry y="86" width="325" height="22" as="geometry" />
        </mxCell>
        <mxCell id="KOUvDkR0qCRG5-3HSuHc-119" value="+ ~Manager()" style="text;strokeColor=none;fillColor=none;align=left;verticalAlign=top;spacingLeft=4;spacingRight=4;overflow=hidden;rotatable=0;points=[[0,0.5],[1,0.5]];portConstraint=eastwest;whiteSpace=wrap;html=1;" parent="zkfFHV4jXpPFQw0GAbJ--13" vertex="1">
          <mxGeometry y="108" width="325" height="26" as="geometry" />
        </mxCell>
        <mxCell id="zkfFHV4jXpPFQw0GAbJ--16" value="" style="endArrow=block;endSize=10;endFill=0;shadow=0;strokeWidth=1;rounded=0;curved=0;edgeStyle=elbowEdgeStyle;elbow=vertical;" parent="WIyWlLk6GJQsqaUBKTNV-1" source="zkfFHV4jXpPFQw0GAbJ--13" target="zkfFHV4jXpPFQw0GAbJ--0" edge="1">
          <mxGeometry width="160" relative="1" as="geometry">
            <mxPoint x="210" y="373" as="sourcePoint" />
            <mxPoint x="310" y="271" as="targetPoint" />
          </mxGeometry>
        </mxCell>
        <mxCell id="U3Yz26fhHiPG21KcbCNh-84" style="edgeStyle=orthogonalEdgeStyle;rounded=0;orthogonalLoop=1;jettySize=auto;html=1;entryX=1;entryY=0.5;entryDx=0;entryDy=0;" edge="1" parent="WIyWlLk6GJQsqaUBKTNV-1" source="zkfFHV4jXpPFQw0GAbJ--17" target="KOUvDkR0qCRG5-3HSuHc-118">
          <mxGeometry relative="1" as="geometry" />
        </mxCell>
        <mxCell id="zkfFHV4jXpPFQw0GAbJ--17" value="Reservation" style="swimlane;fontStyle=0;align=center;verticalAlign=top;childLayout=stackLayout;horizontal=1;startSize=26;horizontalStack=0;resizeParent=1;resizeLast=0;collapsible=1;marginBottom=0;rounded=0;shadow=0;strokeWidth=1;" parent="WIyWlLk6GJQsqaUBKTNV-1" vertex="1">
          <mxGeometry x="1210" y="-110" width="270" height="800" as="geometry">
            <mxRectangle x="550" y="140" width="160" height="26" as="alternateBounds" />
          </mxGeometry>
        </mxCell>
        <mxCell id="KOUvDkR0qCRG5-3HSuHc-40" value="- restaurantName: string" style="text;strokeColor=none;fillColor=none;align=left;verticalAlign=top;spacingLeft=4;spacingRight=4;overflow=hidden;rotatable=0;points=[[0,0.5],[1,0.5]];portConstraint=eastwest;whiteSpace=wrap;html=1;" parent="zkfFHV4jXpPFQw0GAbJ--17" vertex="1">
          <mxGeometry y="26" width="270" height="26" as="geometry" />
        </mxCell>
        <mxCell id="KOUvDkR0qCRG5-3HSuHc-12" value="- Date: int" style="text;strokeColor=none;fillColor=none;align=left;verticalAlign=top;spacingLeft=4;spacingRight=4;overflow=hidden;rotatable=0;points=[[0,0.5],[1,0.5]];portConstraint=eastwest;whiteSpace=wrap;html=1;" parent="zkfFHV4jXpPFQw0GAbJ--17" vertex="1">
          <mxGeometry y="52" width="270" height="26" as="geometry" />
        </mxCell>
        <mxCell id="KOUvDkR0qCRG5-3HSuHc-16" value="- TableNum: int" style="text;strokeColor=none;fillColor=none;align=left;verticalAlign=top;spacingLeft=4;spacingRight=4;overflow=hidden;rotatable=0;points=[[0,0.5],[1,0.5]];portConstraint=eastwest;whiteSpace=wrap;html=1;" parent="zkfFHV4jXpPFQw0GAbJ--17" vertex="1">
          <mxGeometry y="78" width="270" height="24" as="geometry" />
        </mxCell>
        <mxCell id="KOUvDkR0qCRG5-3HSuHc-19" value="- NumPatrons: int" style="text;strokeColor=none;fillColor=none;align=left;verticalAlign=top;spacingLeft=4;spacingRight=4;overflow=hidden;rotatable=0;points=[[0,0.5],[1,0.5]];portConstraint=eastwest;whiteSpace=wrap;html=1;" parent="zkfFHV4jXpPFQw0GAbJ--17" vertex="1">
          <mxGeometry y="102" width="270" height="26" as="geometry" />
        </mxCell>
        <mxCell id="KOUvDkR0qCRG5-3HSuHc-18" value="- DepositAmount: double" style="text;strokeColor=none;fillColor=none;align=left;verticalAlign=top;spacingLeft=4;spacingRight=4;overflow=hidden;rotatable=0;points=[[0,0.5],[1,0.5]];portConstraint=eastwest;whiteSpace=wrap;html=1;" parent="zkfFHV4jXpPFQw0GAbJ--17" vertex="1">
          <mxGeometry y="128" width="270" height="26" as="geometry" />
        </mxCell>
        <mxCell id="KOUvDkR0qCRG5-3HSuHc-17" value="- isDepositPaid: bool" style="text;strokeColor=none;fillColor=none;align=left;verticalAlign=top;spacingLeft=4;spacingRight=4;overflow=hidden;rotatable=0;points=[[0,0.5],[1,0.5]];portConstraint=eastwest;whiteSpace=wrap;html=1;" parent="zkfFHV4jXpPFQw0GAbJ--17" vertex="1">
          <mxGeometry y="154" width="270" height="26" as="geometry" />
        </mxCell>
        <mxCell id="KOUvDkR0qCRG5-3HSuHc-47" value="- customer: Customer*" style="text;strokeColor=none;fillColor=none;align=left;verticalAlign=top;spacingLeft=4;spacingRight=4;overflow=hidden;rotatable=0;points=[[0,0.5],[1,0.5]];portConstraint=eastwest;whiteSpace=wrap;html=1;" parent="zkfFHV4jXpPFQw0GAbJ--17" vertex="1">
          <mxGeometry y="180" width="270" height="26" as="geometry" />
        </mxCell>
        <mxCell id="KOUvDkR0qCRG5-3HSuHc-48" value="- waitor: Waitor*" style="text;strokeColor=none;fillColor=none;align=left;verticalAlign=top;spacingLeft=4;spacingRight=4;overflow=hidden;rotatable=0;points=[[0,0.5],[1,0.5]];portConstraint=eastwest;whiteSpace=wrap;html=1;" parent="zkfFHV4jXpPFQw0GAbJ--17" vertex="1">
          <mxGeometry y="206" width="270" height="26" as="geometry" />
        </mxCell>
        <mxCell id="zkfFHV4jXpPFQw0GAbJ--23" value="" style="line;html=1;strokeWidth=1;align=left;verticalAlign=middle;spacingTop=-1;spacingLeft=3;spacingRight=3;rotatable=0;labelPosition=right;points=[];portConstraint=eastwest;" parent="zkfFHV4jXpPFQw0GAbJ--17" vertex="1">
          <mxGeometry y="232" width="270" height="8" as="geometry" />
        </mxCell>
        <mxCell id="KOUvDkR0qCRG5-3HSuHc-109" value="+ ~Reservation()" style="text;strokeColor=none;fillColor=none;align=left;verticalAlign=top;spacingLeft=4;spacingRight=4;overflow=hidden;rotatable=0;points=[[0,0.5],[1,0.5]];portConstraint=eastwest;whiteSpace=wrap;html=1;" parent="zkfFHV4jXpPFQw0GAbJ--17" vertex="1">
          <mxGeometry y="240" width="270" height="26" as="geometry" />
        </mxCell>
        <mxCell id="KOUvDkR0qCRG5-3HSuHc-108" value="+ Reservation()" style="text;strokeColor=none;fillColor=none;align=left;verticalAlign=top;spacingLeft=4;spacingRight=4;overflow=hidden;rotatable=0;points=[[0,0.5],[1,0.5]];portConstraint=eastwest;whiteSpace=wrap;html=1;" parent="zkfFHV4jXpPFQw0GAbJ--17" vertex="1">
          <mxGeometry y="266" width="270" height="26" as="geometry" />
        </mxCell>
        <mxCell id="zkfFHV4jXpPFQw0GAbJ--24" value="+ ViewReservation(): void" style="text;align=left;verticalAlign=top;spacingLeft=4;spacingRight=4;overflow=hidden;rotatable=0;points=[[0,0.5],[1,0.5]];portConstraint=eastwest;" parent="zkfFHV4jXpPFQw0GAbJ--17" vertex="1">
          <mxGeometry y="292" width="270" height="26" as="geometry" />
        </mxCell>
        <mxCell id="zkfFHV4jXpPFQw0GAbJ--25" value="+ isReservationValid: bool" style="text;align=left;verticalAlign=top;spacingLeft=4;spacingRight=4;overflow=hidden;rotatable=0;points=[[0,0.5],[1,0.5]];portConstraint=eastwest;" parent="zkfFHV4jXpPFQw0GAbJ--17" vertex="1">
          <mxGeometry y="318" width="270" height="26" as="geometry" />
        </mxCell>
        <mxCell id="U3Yz26fhHiPG21KcbCNh-5" value="+ getRestaurantName(): string" style="text;strokeColor=none;fillColor=none;align=left;verticalAlign=top;spacingLeft=4;spacingRight=4;overflow=hidden;rotatable=0;points=[[0,0.5],[1,0.5]];portConstraint=eastwest;whiteSpace=wrap;html=1;" vertex="1" parent="zkfFHV4jXpPFQw0GAbJ--17">
          <mxGeometry y="344" width="270" height="26" as="geometry" />
        </mxCell>
        <mxCell id="U3Yz26fhHiPG21KcbCNh-6" value="+ setRestaurantName(rn: string): void" style="text;strokeColor=none;fillColor=none;align=left;verticalAlign=top;spacingLeft=4;spacingRight=4;overflow=hidden;rotatable=0;points=[[0,0.5],[1,0.5]];portConstraint=eastwest;whiteSpace=wrap;html=1;" vertex="1" parent="zkfFHV4jXpPFQw0GAbJ--17">
          <mxGeometry y="370" width="270" height="26" as="geometry" />
        </mxCell>
        <mxCell id="U3Yz26fhHiPG21KcbCNh-9" value="+ getDate(): int" style="text;strokeColor=none;fillColor=none;align=left;verticalAlign=top;spacingLeft=4;spacingRight=4;overflow=hidden;rotatable=0;points=[[0,0.5],[1,0.5]];portConstraint=eastwest;whiteSpace=wrap;html=1;" vertex="1" parent="zkfFHV4jXpPFQw0GAbJ--17">
          <mxGeometry y="396" width="270" height="26" as="geometry" />
        </mxCell>
        <mxCell id="U3Yz26fhHiPG21KcbCNh-10" value="+ setDate(d: int): void" style="text;strokeColor=none;fillColor=none;align=left;verticalAlign=top;spacingLeft=4;spacingRight=4;overflow=hidden;rotatable=0;points=[[0,0.5],[1,0.5]];portConstraint=eastwest;whiteSpace=wrap;html=1;" vertex="1" parent="zkfFHV4jXpPFQw0GAbJ--17">
          <mxGeometry y="422" width="270" height="26" as="geometry" />
        </mxCell>
        <mxCell id="U3Yz26fhHiPG21KcbCNh-11" value="+ getTableNum():int" style="text;strokeColor=none;fillColor=none;align=left;verticalAlign=top;spacingLeft=4;spacingRight=4;overflow=hidden;rotatable=0;points=[[0,0.5],[1,0.5]];portConstraint=eastwest;whiteSpace=wrap;html=1;" vertex="1" parent="zkfFHV4jXpPFQw0GAbJ--17">
          <mxGeometry y="448" width="270" height="26" as="geometry" />
        </mxCell>
        <mxCell id="U3Yz26fhHiPG21KcbCNh-14" value="+ setTableNum(tn: int): void" style="text;strokeColor=none;fillColor=none;align=left;verticalAlign=top;spacingLeft=4;spacingRight=4;overflow=hidden;rotatable=0;points=[[0,0.5],[1,0.5]];portConstraint=eastwest;whiteSpace=wrap;html=1;" vertex="1" parent="zkfFHV4jXpPFQw0GAbJ--17">
          <mxGeometry y="474" width="270" height="26" as="geometry" />
        </mxCell>
        <mxCell id="U3Yz26fhHiPG21KcbCNh-13" value="+ getNumPatrons(): int" style="text;strokeColor=none;fillColor=none;align=left;verticalAlign=top;spacingLeft=4;spacingRight=4;overflow=hidden;rotatable=0;points=[[0,0.5],[1,0.5]];portConstraint=eastwest;whiteSpace=wrap;html=1;" vertex="1" parent="zkfFHV4jXpPFQw0GAbJ--17">
          <mxGeometry y="500" width="270" height="26" as="geometry" />
        </mxCell>
        <mxCell id="U3Yz26fhHiPG21KcbCNh-12" value="+ setNumPatrons(np: int): void" style="text;strokeColor=none;fillColor=none;align=left;verticalAlign=top;spacingLeft=4;spacingRight=4;overflow=hidden;rotatable=0;points=[[0,0.5],[1,0.5]];portConstraint=eastwest;whiteSpace=wrap;html=1;" vertex="1" parent="zkfFHV4jXpPFQw0GAbJ--17">
          <mxGeometry y="526" width="270" height="26" as="geometry" />
        </mxCell>
        <mxCell id="U3Yz26fhHiPG21KcbCNh-15" value="+ getDepositAmount(): double" style="text;strokeColor=none;fillColor=none;align=left;verticalAlign=top;spacingLeft=4;spacingRight=4;overflow=hidden;rotatable=0;points=[[0,0.5],[1,0.5]];portConstraint=eastwest;whiteSpace=wrap;html=1;" vertex="1" parent="zkfFHV4jXpPFQw0GAbJ--17">
          <mxGeometry y="552" width="270" height="26" as="geometry" />
        </mxCell>
        <mxCell id="U3Yz26fhHiPG21KcbCNh-22" value="+ setDepositAmount(da: double): void" style="text;strokeColor=none;fillColor=none;align=left;verticalAlign=top;spacingLeft=4;spacingRight=4;overflow=hidden;rotatable=0;points=[[0,0.5],[1,0.5]];portConstraint=eastwest;whiteSpace=wrap;html=1;" vertex="1" parent="zkfFHV4jXpPFQw0GAbJ--17">
          <mxGeometry y="578" width="270" height="26" as="geometry" />
        </mxCell>
        <mxCell id="U3Yz26fhHiPG21KcbCNh-21" value="+ getIsDepositPaid(): bool" style="text;strokeColor=none;fillColor=none;align=left;verticalAlign=top;spacingLeft=4;spacingRight=4;overflow=hidden;rotatable=0;points=[[0,0.5],[1,0.5]];portConstraint=eastwest;whiteSpace=wrap;html=1;" vertex="1" parent="zkfFHV4jXpPFQw0GAbJ--17">
          <mxGeometry y="604" width="270" height="26" as="geometry" />
        </mxCell>
        <mxCell id="U3Yz26fhHiPG21KcbCNh-20" value="+ setIsDepositPaid(dp: bool): void" style="text;strokeColor=none;fillColor=none;align=left;verticalAlign=top;spacingLeft=4;spacingRight=4;overflow=hidden;rotatable=0;points=[[0,0.5],[1,0.5]];portConstraint=eastwest;whiteSpace=wrap;html=1;" vertex="1" parent="zkfFHV4jXpPFQw0GAbJ--17">
          <mxGeometry y="630" width="270" height="26" as="geometry" />
        </mxCell>
        <mxCell id="U3Yz26fhHiPG21KcbCNh-19" value="+ getCustomer(): Customer*" style="text;strokeColor=none;fillColor=none;align=left;verticalAlign=top;spacingLeft=4;spacingRight=4;overflow=hidden;rotatable=0;points=[[0,0.5],[1,0.5]];portConstraint=eastwest;whiteSpace=wrap;html=1;" vertex="1" parent="zkfFHV4jXpPFQw0GAbJ--17">
          <mxGeometry y="656" width="270" height="26" as="geometry" />
        </mxCell>
        <mxCell id="U3Yz26fhHiPG21KcbCNh-18" value="+ setCustomer(c: Customer*): void" style="text;strokeColor=none;fillColor=none;align=left;verticalAlign=top;spacingLeft=4;spacingRight=4;overflow=hidden;rotatable=0;points=[[0,0.5],[1,0.5]];portConstraint=eastwest;whiteSpace=wrap;html=1;" vertex="1" parent="zkfFHV4jXpPFQw0GAbJ--17">
          <mxGeometry y="682" width="270" height="26" as="geometry" />
        </mxCell>
        <mxCell id="U3Yz26fhHiPG21KcbCNh-17" value="+ getWaitor(): Waitor*" style="text;strokeColor=none;fillColor=none;align=left;verticalAlign=top;spacingLeft=4;spacingRight=4;overflow=hidden;rotatable=0;points=[[0,0.5],[1,0.5]];portConstraint=eastwest;whiteSpace=wrap;html=1;" vertex="1" parent="zkfFHV4jXpPFQw0GAbJ--17">
          <mxGeometry y="708" width="270" height="26" as="geometry" />
        </mxCell>
        <mxCell id="U3Yz26fhHiPG21KcbCNh-16" value="+ setWaitor(w: Waitor*): void" style="text;strokeColor=none;fillColor=none;align=left;verticalAlign=top;spacingLeft=4;spacingRight=4;overflow=hidden;rotatable=0;points=[[0,0.5],[1,0.5]];portConstraint=eastwest;whiteSpace=wrap;html=1;" vertex="1" parent="zkfFHV4jXpPFQw0GAbJ--17">
          <mxGeometry y="734" width="270" height="26" as="geometry" />
        </mxCell>
        <mxCell id="U3Yz26fhHiPG21KcbCNh-23" value="+ viewReservation(): void" style="text;strokeColor=none;fillColor=none;align=left;verticalAlign=top;spacingLeft=4;spacingRight=4;overflow=hidden;rotatable=0;points=[[0,0.5],[1,0.5]];portConstraint=eastwest;whiteSpace=wrap;html=1;" vertex="1" parent="zkfFHV4jXpPFQw0GAbJ--17">
          <mxGeometry y="760" width="270" height="26" as="geometry" />
        </mxCell>
        <mxCell id="KOUvDkR0qCRG5-3HSuHc-0" value="Waitor" style="swimlane;fontStyle=1;align=center;verticalAlign=top;childLayout=stackLayout;horizontal=1;startSize=26;horizontalStack=0;resizeParent=1;resizeParentMax=0;resizeLast=0;collapsible=1;marginBottom=0;whiteSpace=wrap;html=1;" parent="WIyWlLk6GJQsqaUBKTNV-1" vertex="1">
          <mxGeometry x="280" y="400" width="320" height="108" as="geometry" />
        </mxCell>
        <mxCell id="KOUvDkR0qCRG5-3HSuHc-2" value="" style="line;strokeWidth=1;fillColor=none;align=left;verticalAlign=middle;spacingTop=-1;spacingLeft=3;spacingRight=3;rotatable=0;labelPosition=right;points=[];portConstraint=eastwest;strokeColor=inherit;" parent="KOUvDkR0qCRG5-3HSuHc-0" vertex="1">
          <mxGeometry y="26" width="320" height="8" as="geometry" />
        </mxCell>
        <mxCell id="KOUvDkR0qCRG5-3HSuHc-102" value="+ Waitor()" style="text;strokeColor=none;fillColor=none;align=left;verticalAlign=top;spacingLeft=4;spacingRight=4;overflow=hidden;rotatable=0;points=[[0,0.5],[1,0.5]];portConstraint=eastwest;whiteSpace=wrap;html=1;" parent="KOUvDkR0qCRG5-3HSuHc-0" vertex="1">
          <mxGeometry y="34" width="320" height="26" as="geometry" />
        </mxCell>
        <mxCell id="U3Yz26fhHiPG21KcbCNh-3" value="+ Waitor(name: string, phoneNum: string, email: string)" style="text;strokeColor=none;fillColor=none;align=left;verticalAlign=top;spacingLeft=4;spacingRight=4;overflow=hidden;rotatable=0;points=[[0,0.5],[1,0.5]];portConstraint=eastwest;whiteSpace=wrap;html=1;" vertex="1" parent="KOUvDkR0qCRG5-3HSuHc-0">
          <mxGeometry y="60" width="320" height="22" as="geometry" />
        </mxCell>
        <mxCell id="KOUvDkR0qCRG5-3HSuHc-103" value="+ ~Waitor()" style="text;strokeColor=none;fillColor=none;align=left;verticalAlign=top;spacingLeft=4;spacingRight=4;overflow=hidden;rotatable=0;points=[[0,0.5],[1,0.5]];portConstraint=eastwest;whiteSpace=wrap;html=1;" parent="KOUvDkR0qCRG5-3HSuHc-0" vertex="1">
          <mxGeometry y="82" width="320" height="26" as="geometry" />
        </mxCell>
        <mxCell id="KOUvDkR0qCRG5-3HSuHc-41" value="Restaurant" style="swimlane;fontStyle=1;align=center;verticalAlign=top;childLayout=stackLayout;horizontal=1;startSize=26;horizontalStack=0;resizeParent=1;resizeParentMax=0;resizeLast=0;collapsible=1;marginBottom=0;whiteSpace=wrap;html=1;" parent="WIyWlLk6GJQsqaUBKTNV-1" vertex="1">
          <mxGeometry x="790" y="-580" width="260" height="606" as="geometry" />
        </mxCell>
        <mxCell id="KOUvDkR0qCRG5-3HSuHc-84" value="- restaurantName: string" style="text;strokeColor=none;fillColor=none;align=left;verticalAlign=top;spacingLeft=4;spacingRight=4;overflow=hidden;rotatable=0;points=[[0,0.5],[1,0.5]];portConstraint=eastwest;whiteSpace=wrap;html=1;" parent="KOUvDkR0qCRG5-3HSuHc-41" vertex="1">
          <mxGeometry y="26" width="260" height="26" as="geometry" />
        </mxCell>
        <mxCell id="KOUvDkR0qCRG5-3HSuHc-49" value="- manager: Manager*" style="text;strokeColor=none;fillColor=none;align=left;verticalAlign=top;spacingLeft=4;spacingRight=4;overflow=hidden;rotatable=0;points=[[0,0.5],[1,0.5]];portConstraint=eastwest;whiteSpace=wrap;html=1;" parent="KOUvDkR0qCRG5-3HSuHc-41" vertex="1">
          <mxGeometry y="52" width="260" height="26" as="geometry" />
        </mxCell>
        <mxCell id="KOUvDkR0qCRG5-3HSuHc-42" value="- NumWaitors: int" style="text;strokeColor=none;fillColor=none;align=left;verticalAlign=top;spacingLeft=4;spacingRight=4;overflow=hidden;rotatable=0;points=[[0,0.5],[1,0.5]];portConstraint=eastwest;whiteSpace=wrap;html=1;" parent="KOUvDkR0qCRG5-3HSuHc-41" vertex="1">
          <mxGeometry y="78" width="260" height="26" as="geometry" />
        </mxCell>
        <mxCell id="KOUvDkR0qCRG5-3HSuHc-75" value="- MaxReservations: int" style="text;strokeColor=none;fillColor=none;align=left;verticalAlign=top;spacingLeft=4;spacingRight=4;overflow=hidden;rotatable=0;points=[[0,0.5],[1,0.5]];portConstraint=eastwest;whiteSpace=wrap;html=1;" parent="KOUvDkR0qCRG5-3HSuHc-41" vertex="1">
          <mxGeometry y="104" width="260" height="26" as="geometry" />
        </mxCell>
        <mxCell id="KOUvDkR0qCRG5-3HSuHc-52" value="- waitors: Waitors**" style="text;strokeColor=none;fillColor=none;align=left;verticalAlign=top;spacingLeft=4;spacingRight=4;overflow=hidden;rotatable=0;points=[[0,0.5],[1,0.5]];portConstraint=eastwest;whiteSpace=wrap;html=1;" parent="KOUvDkR0qCRG5-3HSuHc-41" vertex="1">
          <mxGeometry y="130" width="260" height="26" as="geometry" />
        </mxCell>
        <mxCell id="KOUvDkR0qCRG5-3HSuHc-51" value="- reservations: Reservation**" style="text;strokeColor=none;fillColor=none;align=left;verticalAlign=top;spacingLeft=4;spacingRight=4;overflow=hidden;rotatable=0;points=[[0,0.5],[1,0.5]];portConstraint=eastwest;whiteSpace=wrap;html=1;" parent="KOUvDkR0qCRG5-3HSuHc-41" vertex="1">
          <mxGeometry y="156" width="260" height="26" as="geometry" />
        </mxCell>
        <mxCell id="KOUvDkR0qCRG5-3HSuHc-43" value="" style="line;strokeWidth=1;fillColor=none;align=left;verticalAlign=middle;spacingTop=-1;spacingLeft=3;spacingRight=3;rotatable=0;labelPosition=right;points=[];portConstraint=eastwest;strokeColor=inherit;" parent="KOUvDkR0qCRG5-3HSuHc-41" vertex="1">
          <mxGeometry y="182" width="260" height="8" as="geometry" />
        </mxCell>
        <mxCell id="KOUvDkR0qCRG5-3HSuHc-106" value="+ Restaurant()" style="text;strokeColor=none;fillColor=none;align=left;verticalAlign=top;spacingLeft=4;spacingRight=4;overflow=hidden;rotatable=0;points=[[0,0.5],[1,0.5]];portConstraint=eastwest;whiteSpace=wrap;html=1;" parent="KOUvDkR0qCRG5-3HSuHc-41" vertex="1">
          <mxGeometry y="190" width="260" height="26" as="geometry" />
        </mxCell>
        <mxCell id="KOUvDkR0qCRG5-3HSuHc-107" value="+ ~Restaurant&lt;span style=&quot;color: rgba(0, 0, 0, 0); font-family: monospace; font-size: 0px; text-wrap: nowrap;&quot;&gt;%3CmxGraphModel%3E%3Croot%3E%3CmxCell%20id%3D%220%22%2F%3E%3CmxCell%20id%3D%221%22%20parent%3D%220%22%2F%3E%3CmxCell%20id%3D%222%22%20value%3D%22%2B%20User()%22%20style%3D%22text%3BstrokeColor%3Dnone%3BfillColor%3Dnone%3Balign%3Dleft%3BverticalAlign%3Dtop%3BspacingLeft%3D4%3BspacingRight%3D4%3Boverflow%3Dhidden%3Brotatable%3D0%3Bpoints%3D%5B%5B0%2C0.5%5D%2C%5B1%2C0.5%5D%5D%3BportConstraint%3Deastwest%3BwhiteSpace%3Dwrap%3Bhtml%3D1%3B%22%20vertex%3D%221%22%20parent%3D%221%22%3E%3CmxGeometry%20x%3D%22310%22%20y%3D%2248%22%20width%3D%22250%22%20height%3D%2226%22%20as%3D%22geometry%22%2F%3E%3C%2FmxCell%3E%3CmxCell%20id%3D%223%22%20value%3D%22%2B%20~User()%22%20style%3D%22text%3BstrokeColor%3Dnone%3BfillColor%3Dnone%3Balign%3Dleft%3BverticalAlign%3Dtop%3BspacingLeft%3D4%3BspacingRight%3D4%3Boverflow%3Dhidden%3Brotatable%3D0%3Bpoints%3D%5B%5B0%2C0.5%5D%2C%5B1%2C0.5%5D%5D%3BportConstraint%3Deastwest%3BwhiteSpace%3Dwrap%3Bhtml%3D1%3B%22%20vertex%3D%221%22%20parent%3D%221%22%3E%3CmxGeometry%20x%3D%22310%22%20y%3D%2274%22%20width%3D%22250%22%20height%3D%2226%22%20as%3D%22geometry%22%2F%3E%3C%2FmxCell%3E%3C%2Froot%3E%3C%2FmxGraphModel%3E&lt;/span&gt;()" style="text;strokeColor=none;fillColor=none;align=left;verticalAlign=top;spacingLeft=4;spacingRight=4;overflow=hidden;rotatable=0;points=[[0,0.5],[1,0.5]];portConstraint=eastwest;whiteSpace=wrap;html=1;" parent="KOUvDkR0qCRG5-3HSuHc-41" vertex="1">
          <mxGeometry y="216" width="260" height="26" as="geometry" />
        </mxCell>
        <mxCell id="zkfFHV4jXpPFQw0GAbJ--5" value="+viewAvailableReservations: void" style="text;align=left;verticalAlign=top;spacingLeft=4;spacingRight=4;overflow=hidden;rotatable=0;points=[[0,0.5],[1,0.5]];portConstraint=eastwest;" parent="KOUvDkR0qCRG5-3HSuHc-41" vertex="1">
          <mxGeometry y="242" width="260" height="26" as="geometry" />
        </mxCell>
        <mxCell id="U3Yz26fhHiPG21KcbCNh-28" value="+ getRestaurantName(): string" style="text;strokeColor=none;fillColor=none;align=left;verticalAlign=top;spacingLeft=4;spacingRight=4;overflow=hidden;rotatable=0;points=[[0,0.5],[1,0.5]];portConstraint=eastwest;whiteSpace=wrap;html=1;" vertex="1" parent="KOUvDkR0qCRG5-3HSuHc-41">
          <mxGeometry y="268" width="260" height="26" as="geometry" />
        </mxCell>
        <mxCell id="U3Yz26fhHiPG21KcbCNh-29" value="+ setRestaurantName(rn: string): void" style="text;strokeColor=none;fillColor=none;align=left;verticalAlign=top;spacingLeft=4;spacingRight=4;overflow=hidden;rotatable=0;points=[[0,0.5],[1,0.5]];portConstraint=eastwest;whiteSpace=wrap;html=1;" vertex="1" parent="KOUvDkR0qCRG5-3HSuHc-41">
          <mxGeometry y="294" width="260" height="26" as="geometry" />
        </mxCell>
        <mxCell id="U3Yz26fhHiPG21KcbCNh-36" value="+ getManager(): Manager*" style="text;strokeColor=none;fillColor=none;align=left;verticalAlign=top;spacingLeft=4;spacingRight=4;overflow=hidden;rotatable=0;points=[[0,0.5],[1,0.5]];portConstraint=eastwest;whiteSpace=wrap;html=1;" vertex="1" parent="KOUvDkR0qCRG5-3HSuHc-41">
          <mxGeometry y="320" width="260" height="26" as="geometry" />
        </mxCell>
        <mxCell id="U3Yz26fhHiPG21KcbCNh-41" value="+ setMAnager(m: Manager*): void" style="text;strokeColor=none;fillColor=none;align=left;verticalAlign=top;spacingLeft=4;spacingRight=4;overflow=hidden;rotatable=0;points=[[0,0.5],[1,0.5]];portConstraint=eastwest;whiteSpace=wrap;html=1;" vertex="1" parent="KOUvDkR0qCRG5-3HSuHc-41">
          <mxGeometry y="346" width="260" height="26" as="geometry" />
        </mxCell>
        <mxCell id="U3Yz26fhHiPG21KcbCNh-40" value="+ getNumWaitors(): int" style="text;strokeColor=none;fillColor=none;align=left;verticalAlign=top;spacingLeft=4;spacingRight=4;overflow=hidden;rotatable=0;points=[[0,0.5],[1,0.5]];portConstraint=eastwest;whiteSpace=wrap;html=1;" vertex="1" parent="KOUvDkR0qCRG5-3HSuHc-41">
          <mxGeometry y="372" width="260" height="26" as="geometry" />
        </mxCell>
        <mxCell id="U3Yz26fhHiPG21KcbCNh-39" value="+ setNumWaitors(nw: int): void" style="text;strokeColor=none;fillColor=none;align=left;verticalAlign=top;spacingLeft=4;spacingRight=4;overflow=hidden;rotatable=0;points=[[0,0.5],[1,0.5]];portConstraint=eastwest;whiteSpace=wrap;html=1;" vertex="1" parent="KOUvDkR0qCRG5-3HSuHc-41">
          <mxGeometry y="398" width="260" height="26" as="geometry" />
        </mxCell>
        <mxCell id="U3Yz26fhHiPG21KcbCNh-38" value="+ getMaxReservations(): int" style="text;strokeColor=none;fillColor=none;align=left;verticalAlign=top;spacingLeft=4;spacingRight=4;overflow=hidden;rotatable=0;points=[[0,0.5],[1,0.5]];portConstraint=eastwest;whiteSpace=wrap;html=1;" vertex="1" parent="KOUvDkR0qCRG5-3HSuHc-41">
          <mxGeometry y="424" width="260" height="26" as="geometry" />
        </mxCell>
        <mxCell id="U3Yz26fhHiPG21KcbCNh-37" value="+ setMaxReservations(mr: int) :void" style="text;strokeColor=none;fillColor=none;align=left;verticalAlign=top;spacingLeft=4;spacingRight=4;overflow=hidden;rotatable=0;points=[[0,0.5],[1,0.5]];portConstraint=eastwest;whiteSpace=wrap;html=1;" vertex="1" parent="KOUvDkR0qCRG5-3HSuHc-41">
          <mxGeometry y="450" width="260" height="26" as="geometry" />
        </mxCell>
        <mxCell id="U3Yz26fhHiPG21KcbCNh-30" value="+ getWaitors(): Waitor**" style="text;strokeColor=none;fillColor=none;align=left;verticalAlign=top;spacingLeft=4;spacingRight=4;overflow=hidden;rotatable=0;points=[[0,0.5],[1,0.5]];portConstraint=eastwest;whiteSpace=wrap;html=1;" vertex="1" parent="KOUvDkR0qCRG5-3HSuHc-41">
          <mxGeometry y="476" width="260" height="26" as="geometry" />
        </mxCell>
        <mxCell id="U3Yz26fhHiPG21KcbCNh-32" value="+ setWaitors(w: Waitor**): void" style="text;strokeColor=none;fillColor=none;align=left;verticalAlign=top;spacingLeft=4;spacingRight=4;overflow=hidden;rotatable=0;points=[[0,0.5],[1,0.5]];portConstraint=eastwest;whiteSpace=wrap;html=1;" vertex="1" parent="KOUvDkR0qCRG5-3HSuHc-41">
          <mxGeometry y="502" width="260" height="26" as="geometry" />
        </mxCell>
        <mxCell id="U3Yz26fhHiPG21KcbCNh-31" value="+ printRestaurant(): void" style="text;strokeColor=none;fillColor=none;align=left;verticalAlign=top;spacingLeft=4;spacingRight=4;overflow=hidden;rotatable=0;points=[[0,0.5],[1,0.5]];portConstraint=eastwest;whiteSpace=wrap;html=1;" vertex="1" parent="KOUvDkR0qCRG5-3HSuHc-41">
          <mxGeometry y="528" width="260" height="26" as="geometry" />
        </mxCell>
        <mxCell id="U3Yz26fhHiPG21KcbCNh-35" value="+ getReservations(): Reservation**" style="text;strokeColor=none;fillColor=none;align=left;verticalAlign=top;spacingLeft=4;spacingRight=4;overflow=hidden;rotatable=0;points=[[0,0.5],[1,0.5]];portConstraint=eastwest;whiteSpace=wrap;html=1;" vertex="1" parent="KOUvDkR0qCRG5-3HSuHc-41">
          <mxGeometry y="554" width="260" height="26" as="geometry" />
        </mxCell>
        <mxCell id="U3Yz26fhHiPG21KcbCNh-34" value="+ setReservations(r: Reservations): void" style="text;strokeColor=none;fillColor=none;align=left;verticalAlign=top;spacingLeft=4;spacingRight=4;overflow=hidden;rotatable=0;points=[[0,0.5],[1,0.5]];portConstraint=eastwest;whiteSpace=wrap;html=1;" vertex="1" parent="KOUvDkR0qCRG5-3HSuHc-41">
          <mxGeometry y="580" width="260" height="26" as="geometry" />
        </mxCell>
        <mxCell id="U3Yz26fhHiPG21KcbCNh-87" style="edgeStyle=orthogonalEdgeStyle;rounded=0;orthogonalLoop=1;jettySize=auto;html=1;entryX=0.5;entryY=0;entryDx=0;entryDy=0;exitX=0.5;exitY=0;exitDx=0;exitDy=0;" edge="1" parent="WIyWlLk6GJQsqaUBKTNV-1" source="KOUvDkR0qCRG5-3HSuHc-61" target="KOUvDkR0qCRG5-3HSuHc-41">
          <mxGeometry relative="1" as="geometry" />
        </mxCell>
        <mxCell id="KOUvDkR0qCRG5-3HSuHc-61" value="&lt;span style=&quot;box-sizing: border-box; scrollbar-width: thin; scrollbar-color: rgb(213, 221, 234) rgb(248, 249, 250); font-weight: bolder; font-family: inherit; font-size: inherit; letter-spacing: 0rem; text-align: left; text-transform: inherit; background-color: rgb(255, 255, 255);&quot;&gt;&lt;span style=&quot;box-sizing: border-box; scrollbar-width: thin; scrollbar-color: rgb(213, 221, 234) rgb(248, 249, 250);&quot; lang=&quot;EN-GB&quot;&gt;Wonders Reservation System&lt;/span&gt;&lt;/span&gt;" style="swimlane;fontStyle=1;align=center;verticalAlign=top;childLayout=stackLayout;horizontal=1;startSize=26;horizontalStack=0;resizeParent=1;resizeParentMax=0;resizeLast=0;collapsible=1;marginBottom=0;whiteSpace=wrap;html=1;" parent="WIyWlLk6GJQsqaUBKTNV-1" vertex="1">
          <mxGeometry x="-530" y="-220" width="340" height="1148" as="geometry" />
        </mxCell>
        <mxCell id="U3Yz26fhHiPG21KcbCNh-42" value="- file: fstream" style="text;strokeColor=none;fillColor=none;align=left;verticalAlign=top;spacingLeft=4;spacingRight=4;overflow=hidden;rotatable=0;points=[[0,0.5],[1,0.5]];portConstraint=eastwest;whiteSpace=wrap;html=1;" vertex="1" parent="KOUvDkR0qCRG5-3HSuHc-61">
          <mxGeometry y="26" width="340" height="26" as="geometry" />
        </mxCell>
        <mxCell id="KOUvDkR0qCRG5-3HSuHc-72" value="- numAllRestaurants: int" style="text;strokeColor=none;fillColor=none;align=left;verticalAlign=top;spacingLeft=4;spacingRight=4;overflow=hidden;rotatable=0;points=[[0,0.5],[1,0.5]];portConstraint=eastwest;whiteSpace=wrap;html=1;" parent="KOUvDkR0qCRG5-3HSuHc-61" vertex="1">
          <mxGeometry y="52" width="340" height="26" as="geometry" />
        </mxCell>
        <mxCell id="KOUvDkR0qCRG5-3HSuHc-67" value="- numAllCustomers: int" style="text;strokeColor=none;fillColor=none;align=left;verticalAlign=top;spacingLeft=4;spacingRight=4;overflow=hidden;rotatable=0;points=[[0,0.5],[1,0.5]];portConstraint=eastwest;whiteSpace=wrap;html=1;" parent="KOUvDkR0qCRG5-3HSuHc-61" vertex="1">
          <mxGeometry y="78" width="340" height="26" as="geometry" />
        </mxCell>
        <mxCell id="KOUvDkR0qCRG5-3HSuHc-73" value="- numAllWaitors: int" style="text;strokeColor=none;fillColor=none;align=left;verticalAlign=top;spacingLeft=4;spacingRight=4;overflow=hidden;rotatable=0;points=[[0,0.5],[1,0.5]];portConstraint=eastwest;whiteSpace=wrap;html=1;" parent="KOUvDkR0qCRG5-3HSuHc-61" vertex="1">
          <mxGeometry y="104" width="340" height="26" as="geometry" />
        </mxCell>
        <mxCell id="U3Yz26fhHiPG21KcbCNh-43" value="- numAllManagers: int" style="text;strokeColor=none;fillColor=none;align=left;verticalAlign=top;spacingLeft=4;spacingRight=4;overflow=hidden;rotatable=0;points=[[0,0.5],[1,0.5]];portConstraint=eastwest;whiteSpace=wrap;html=1;" vertex="1" parent="KOUvDkR0qCRG5-3HSuHc-61">
          <mxGeometry y="130" width="340" height="26" as="geometry" />
        </mxCell>
        <mxCell id="KOUvDkR0qCRG5-3HSuHc-62" value="- allRestaurants: Restaurant**" style="text;strokeColor=none;fillColor=none;align=left;verticalAlign=top;spacingLeft=4;spacingRight=4;overflow=hidden;rotatable=0;points=[[0,0.5],[1,0.5]];portConstraint=eastwest;whiteSpace=wrap;html=1;" parent="KOUvDkR0qCRG5-3HSuHc-61" vertex="1">
          <mxGeometry y="156" width="340" height="26" as="geometry" />
        </mxCell>
        <mxCell id="KOUvDkR0qCRG5-3HSuHc-69" value="- allCustomers: Customer**" style="text;strokeColor=none;fillColor=none;align=left;verticalAlign=top;spacingLeft=4;spacingRight=4;overflow=hidden;rotatable=0;points=[[0,0.5],[1,0.5]];portConstraint=eastwest;whiteSpace=wrap;html=1;" parent="KOUvDkR0qCRG5-3HSuHc-61" vertex="1">
          <mxGeometry y="182" width="340" height="22" as="geometry" />
        </mxCell>
        <mxCell id="U3Yz26fhHiPG21KcbCNh-45" value="- fileName: string" style="text;strokeColor=none;fillColor=none;align=left;verticalAlign=top;spacingLeft=4;spacingRight=4;overflow=hidden;rotatable=0;points=[[0,0.5],[1,0.5]];portConstraint=eastwest;whiteSpace=wrap;html=1;" vertex="1" parent="KOUvDkR0qCRG5-3HSuHc-61">
          <mxGeometry y="204" width="340" height="26" as="geometry" />
        </mxCell>
        <mxCell id="U3Yz26fhHiPG21KcbCNh-47" value="- userName: string" style="text;strokeColor=none;fillColor=none;align=left;verticalAlign=top;spacingLeft=4;spacingRight=4;overflow=hidden;rotatable=0;points=[[0,0.5],[1,0.5]];portConstraint=eastwest;whiteSpace=wrap;html=1;" vertex="1" parent="KOUvDkR0qCRG5-3HSuHc-61">
          <mxGeometry y="230" width="340" height="26" as="geometry" />
        </mxCell>
        <mxCell id="U3Yz26fhHiPG21KcbCNh-48" value="- userPhoneNum: string" style="text;strokeColor=none;fillColor=none;align=left;verticalAlign=top;spacingLeft=4;spacingRight=4;overflow=hidden;rotatable=0;points=[[0,0.5],[1,0.5]];portConstraint=eastwest;whiteSpace=wrap;html=1;" vertex="1" parent="KOUvDkR0qCRG5-3HSuHc-61">
          <mxGeometry y="256" width="340" height="26" as="geometry" />
        </mxCell>
        <mxCell id="U3Yz26fhHiPG21KcbCNh-46" value="- userEmail: string" style="text;strokeColor=none;fillColor=none;align=left;verticalAlign=top;spacingLeft=4;spacingRight=4;overflow=hidden;rotatable=0;points=[[0,0.5],[1,0.5]];portConstraint=eastwest;whiteSpace=wrap;html=1;" vertex="1" parent="KOUvDkR0qCRG5-3HSuHc-61">
          <mxGeometry y="282" width="340" height="26" as="geometry" />
        </mxCell>
        <mxCell id="KOUvDkR0qCRG5-3HSuHc-63" value="" style="line;strokeWidth=1;fillColor=none;align=left;verticalAlign=middle;spacingTop=-1;spacingLeft=3;spacingRight=3;rotatable=0;labelPosition=right;points=[];portConstraint=eastwest;strokeColor=inherit;" parent="KOUvDkR0qCRG5-3HSuHc-61" vertex="1">
          <mxGeometry y="308" width="340" height="8" as="geometry" />
        </mxCell>
        <mxCell id="KOUvDkR0qCRG5-3HSuHc-64" value="+ menu(): void" style="text;strokeColor=none;fillColor=none;align=left;verticalAlign=top;spacingLeft=4;spacingRight=4;overflow=hidden;rotatable=0;points=[[0,0.5],[1,0.5]];portConstraint=eastwest;whiteSpace=wrap;html=1;" parent="KOUvDkR0qCRG5-3HSuHc-61" vertex="1">
          <mxGeometry y="316" width="340" height="26" as="geometry" />
        </mxCell>
        <mxCell id="U3Yz26fhHiPG21KcbCNh-51" value="+ getOption(): int" style="text;strokeColor=none;fillColor=none;align=left;verticalAlign=top;spacingLeft=4;spacingRight=4;overflow=hidden;rotatable=0;points=[[0,0.5],[1,0.5]];portConstraint=eastwest;whiteSpace=wrap;html=1;" vertex="1" parent="KOUvDkR0qCRG5-3HSuHc-61">
          <mxGeometry y="342" width="340" height="26" as="geometry" />
        </mxCell>
        <mxCell id="U3Yz26fhHiPG21KcbCNh-61" value="+ getUserDetails(): void" style="text;strokeColor=none;fillColor=none;align=left;verticalAlign=top;spacingLeft=4;spacingRight=4;overflow=hidden;rotatable=0;points=[[0,0.5],[1,0.5]];portConstraint=eastwest;whiteSpace=wrap;html=1;" vertex="1" parent="KOUvDkR0qCRG5-3HSuHc-61">
          <mxGeometry y="368" width="340" height="26" as="geometry" />
        </mxCell>
        <mxCell id="U3Yz26fhHiPG21KcbCNh-64" value="+ printUserDetails(): void" style="text;strokeColor=none;fillColor=none;align=left;verticalAlign=top;spacingLeft=4;spacingRight=4;overflow=hidden;rotatable=0;points=[[0,0.5],[1,0.5]];portConstraint=eastwest;whiteSpace=wrap;html=1;" vertex="1" parent="KOUvDkR0qCRG5-3HSuHc-61">
          <mxGeometry y="394" width="340" height="26" as="geometry" />
        </mxCell>
        <mxCell id="U3Yz26fhHiPG21KcbCNh-63" value="+ displayLoginError(): void" style="text;strokeColor=none;fillColor=none;align=left;verticalAlign=top;spacingLeft=4;spacingRight=4;overflow=hidden;rotatable=0;points=[[0,0.5],[1,0.5]];portConstraint=eastwest;whiteSpace=wrap;html=1;" vertex="1" parent="KOUvDkR0qCRG5-3HSuHc-61">
          <mxGeometry y="420" width="340" height="26" as="geometry" />
        </mxCell>
        <mxCell id="U3Yz26fhHiPG21KcbCNh-62" value="+ displayLoginMessage(t: string:): void" style="text;strokeColor=none;fillColor=none;align=left;verticalAlign=top;spacingLeft=4;spacingRight=4;overflow=hidden;rotatable=0;points=[[0,0.5],[1,0.5]];portConstraint=eastwest;whiteSpace=wrap;html=1;" vertex="1" parent="KOUvDkR0qCRG5-3HSuHc-61">
          <mxGeometry y="446" width="340" height="26" as="geometry" />
        </mxCell>
        <mxCell id="U3Yz26fhHiPG21KcbCNh-58" value="+ displayReservationConfirmation(r: Reservation*): void" style="text;strokeColor=none;fillColor=none;align=left;verticalAlign=top;spacingLeft=4;spacingRight=4;overflow=hidden;rotatable=0;points=[[0,0.5],[1,0.5]];portConstraint=eastwest;whiteSpace=wrap;html=1;" vertex="1" parent="KOUvDkR0qCRG5-3HSuHc-61">
          <mxGeometry y="472" width="340" height="26" as="geometry" />
        </mxCell>
        <mxCell id="U3Yz26fhHiPG21KcbCNh-59" value="+ customerLogin(): void" style="text;strokeColor=none;fillColor=none;align=left;verticalAlign=top;spacingLeft=4;spacingRight=4;overflow=hidden;rotatable=0;points=[[0,0.5],[1,0.5]];portConstraint=eastwest;whiteSpace=wrap;html=1;" vertex="1" parent="KOUvDkR0qCRG5-3HSuHc-61">
          <mxGeometry y="498" width="340" height="26" as="geometry" />
        </mxCell>
        <mxCell id="U3Yz26fhHiPG21KcbCNh-56" value="+ getAllCustomers(): void" style="text;strokeColor=none;fillColor=none;align=left;verticalAlign=top;spacingLeft=4;spacingRight=4;overflow=hidden;rotatable=0;points=[[0,0.5],[1,0.5]];portConstraint=eastwest;whiteSpace=wrap;html=1;" vertex="1" parent="KOUvDkR0qCRG5-3HSuHc-61">
          <mxGeometry y="524" width="340" height="26" as="geometry" />
        </mxCell>
        <mxCell id="U3Yz26fhHiPG21KcbCNh-57" value="+ printAllCustomers(): void" style="text;strokeColor=none;fillColor=none;align=left;verticalAlign=top;spacingLeft=4;spacingRight=4;overflow=hidden;rotatable=0;points=[[0,0.5],[1,0.5]];portConstraint=eastwest;whiteSpace=wrap;html=1;" vertex="1" parent="KOUvDkR0qCRG5-3HSuHc-61">
          <mxGeometry y="550" width="340" height="26" as="geometry" />
        </mxCell>
        <mxCell id="U3Yz26fhHiPG21KcbCNh-55" value="+ clearAllCustomers(): void" style="text;strokeColor=none;fillColor=none;align=left;verticalAlign=top;spacingLeft=4;spacingRight=4;overflow=hidden;rotatable=0;points=[[0,0.5],[1,0.5]];portConstraint=eastwest;whiteSpace=wrap;html=1;" vertex="1" parent="KOUvDkR0qCRG5-3HSuHc-61">
          <mxGeometry y="576" width="340" height="26" as="geometry" />
        </mxCell>
        <mxCell id="U3Yz26fhHiPG21KcbCNh-52" value="+ isValidCustomer(): bool" style="text;strokeColor=none;fillColor=none;align=left;verticalAlign=top;spacingLeft=4;spacingRight=4;overflow=hidden;rotatable=0;points=[[0,0.5],[1,0.5]];portConstraint=eastwest;whiteSpace=wrap;html=1;" vertex="1" parent="KOUvDkR0qCRG5-3HSuHc-61">
          <mxGeometry y="602" width="340" height="26" as="geometry" />
        </mxCell>
        <mxCell id="U3Yz26fhHiPG21KcbCNh-54" value="+findCustomer(name: string): Customer*" style="text;strokeColor=none;fillColor=none;align=left;verticalAlign=top;spacingLeft=4;spacingRight=4;overflow=hidden;rotatable=0;points=[[0,0.5],[1,0.5]];portConstraint=eastwest;whiteSpace=wrap;html=1;" vertex="1" parent="KOUvDkR0qCRG5-3HSuHc-61">
          <mxGeometry y="628" width="340" height="26" as="geometry" />
        </mxCell>
        <mxCell id="U3Yz26fhHiPG21KcbCNh-65" value="+ WaitorLogin(): void" style="text;strokeColor=none;fillColor=none;align=left;verticalAlign=top;spacingLeft=4;spacingRight=4;overflow=hidden;rotatable=0;points=[[0,0.5],[1,0.5]];portConstraint=eastwest;whiteSpace=wrap;html=1;" vertex="1" parent="KOUvDkR0qCRG5-3HSuHc-61">
          <mxGeometry y="654" width="340" height="26" as="geometry" />
        </mxCell>
        <mxCell id="U3Yz26fhHiPG21KcbCNh-70" value="+findWaitor(name: string): Waitor*" style="text;strokeColor=none;fillColor=none;align=left;verticalAlign=top;spacingLeft=4;spacingRight=4;overflow=hidden;rotatable=0;points=[[0,0.5],[1,0.5]];portConstraint=eastwest;whiteSpace=wrap;html=1;" vertex="1" parent="KOUvDkR0qCRG5-3HSuHc-61">
          <mxGeometry y="680" width="340" height="26" as="geometry" />
        </mxCell>
        <mxCell id="U3Yz26fhHiPG21KcbCNh-69" value="+ isValidWaitor(): bool" style="text;strokeColor=none;fillColor=none;align=left;verticalAlign=top;spacingLeft=4;spacingRight=4;overflow=hidden;rotatable=0;points=[[0,0.5],[1,0.5]];portConstraint=eastwest;whiteSpace=wrap;html=1;" vertex="1" parent="KOUvDkR0qCRG5-3HSuHc-61">
          <mxGeometry y="706" width="340" height="26" as="geometry" />
        </mxCell>
        <mxCell id="U3Yz26fhHiPG21KcbCNh-68" value="+ clearAllWaitor(): void" style="text;strokeColor=none;fillColor=none;align=left;verticalAlign=top;spacingLeft=4;spacingRight=4;overflow=hidden;rotatable=0;points=[[0,0.5],[1,0.5]];portConstraint=eastwest;whiteSpace=wrap;html=1;" vertex="1" parent="KOUvDkR0qCRG5-3HSuHc-61">
          <mxGeometry y="732" width="340" height="26" as="geometry" />
        </mxCell>
        <mxCell id="U3Yz26fhHiPG21KcbCNh-67" value="+ printAllWaitor(): void" style="text;strokeColor=none;fillColor=none;align=left;verticalAlign=top;spacingLeft=4;spacingRight=4;overflow=hidden;rotatable=0;points=[[0,0.5],[1,0.5]];portConstraint=eastwest;whiteSpace=wrap;html=1;" vertex="1" parent="KOUvDkR0qCRG5-3HSuHc-61">
          <mxGeometry y="758" width="340" height="26" as="geometry" />
        </mxCell>
        <mxCell id="U3Yz26fhHiPG21KcbCNh-71" value="+ ManagerLogin(): void" style="text;strokeColor=none;fillColor=none;align=left;verticalAlign=top;spacingLeft=4;spacingRight=4;overflow=hidden;rotatable=0;points=[[0,0.5],[1,0.5]];portConstraint=eastwest;whiteSpace=wrap;html=1;" vertex="1" parent="KOUvDkR0qCRG5-3HSuHc-61">
          <mxGeometry y="784" width="340" height="26" as="geometry" />
        </mxCell>
        <mxCell id="U3Yz26fhHiPG21KcbCNh-73" value="+ printAllManager(): void" style="text;strokeColor=none;fillColor=none;align=left;verticalAlign=top;spacingLeft=4;spacingRight=4;overflow=hidden;rotatable=0;points=[[0,0.5],[1,0.5]];portConstraint=eastwest;whiteSpace=wrap;html=1;" vertex="1" parent="KOUvDkR0qCRG5-3HSuHc-61">
          <mxGeometry y="810" width="340" height="26" as="geometry" />
        </mxCell>
        <mxCell id="U3Yz26fhHiPG21KcbCNh-72" value="+ getAllManager(): void" style="text;strokeColor=none;fillColor=none;align=left;verticalAlign=top;spacingLeft=4;spacingRight=4;overflow=hidden;rotatable=0;points=[[0,0.5],[1,0.5]];portConstraint=eastwest;whiteSpace=wrap;html=1;" vertex="1" parent="KOUvDkR0qCRG5-3HSuHc-61">
          <mxGeometry y="836" width="340" height="26" as="geometry" />
        </mxCell>
        <mxCell id="U3Yz26fhHiPG21KcbCNh-74" value="+ clearAllManager(): void" style="text;strokeColor=none;fillColor=none;align=left;verticalAlign=top;spacingLeft=4;spacingRight=4;overflow=hidden;rotatable=0;points=[[0,0.5],[1,0.5]];portConstraint=eastwest;whiteSpace=wrap;html=1;" vertex="1" parent="KOUvDkR0qCRG5-3HSuHc-61">
          <mxGeometry y="862" width="340" height="26" as="geometry" />
        </mxCell>
        <mxCell id="U3Yz26fhHiPG21KcbCNh-75" value="+ isValidManager(): bool" style="text;strokeColor=none;fillColor=none;align=left;verticalAlign=top;spacingLeft=4;spacingRight=4;overflow=hidden;rotatable=0;points=[[0,0.5],[1,0.5]];portConstraint=eastwest;whiteSpace=wrap;html=1;" vertex="1" parent="KOUvDkR0qCRG5-3HSuHc-61">
          <mxGeometry y="888" width="340" height="26" as="geometry" />
        </mxCell>
        <mxCell id="U3Yz26fhHiPG21KcbCNh-76" value="+findManger(name: string): Manager*" style="text;strokeColor=none;fillColor=none;align=left;verticalAlign=top;spacingLeft=4;spacingRight=4;overflow=hidden;rotatable=0;points=[[0,0.5],[1,0.5]];portConstraint=eastwest;whiteSpace=wrap;html=1;" vertex="1" parent="KOUvDkR0qCRG5-3HSuHc-61">
          <mxGeometry y="914" width="340" height="26" as="geometry" />
        </mxCell>
        <mxCell id="U3Yz26fhHiPG21KcbCNh-66" value="+ getAllWaitors(): void" style="text;strokeColor=none;fillColor=none;align=left;verticalAlign=top;spacingLeft=4;spacingRight=4;overflow=hidden;rotatable=0;points=[[0,0.5],[1,0.5]];portConstraint=eastwest;whiteSpace=wrap;html=1;" vertex="1" parent="KOUvDkR0qCRG5-3HSuHc-61">
          <mxGeometry y="940" width="340" height="26" as="geometry" />
        </mxCell>
        <mxCell id="U3Yz26fhHiPG21KcbCNh-53" value="+ getAllRestaurants(): void" style="text;strokeColor=none;fillColor=none;align=left;verticalAlign=top;spacingLeft=4;spacingRight=4;overflow=hidden;rotatable=0;points=[[0,0.5],[1,0.5]];portConstraint=eastwest;whiteSpace=wrap;html=1;" vertex="1" parent="KOUvDkR0qCRG5-3HSuHc-61">
          <mxGeometry y="966" width="340" height="26" as="geometry" />
        </mxCell>
        <mxCell id="U3Yz26fhHiPG21KcbCNh-50" value="+ printAllRestaurants(): void" style="text;strokeColor=none;fillColor=none;align=left;verticalAlign=top;spacingLeft=4;spacingRight=4;overflow=hidden;rotatable=0;points=[[0,0.5],[1,0.5]];portConstraint=eastwest;whiteSpace=wrap;html=1;" vertex="1" parent="KOUvDkR0qCRG5-3HSuHc-61">
          <mxGeometry y="992" width="340" height="26" as="geometry" />
        </mxCell>
        <mxCell id="U3Yz26fhHiPG21KcbCNh-49" value="clearAllRestaurants(): void" style="text;strokeColor=none;fillColor=none;align=left;verticalAlign=top;spacingLeft=4;spacingRight=4;overflow=hidden;rotatable=0;points=[[0,0.5],[1,0.5]];portConstraint=eastwest;whiteSpace=wrap;html=1;" vertex="1" parent="KOUvDkR0qCRG5-3HSuHc-61">
          <mxGeometry y="1018" width="340" height="26" as="geometry" />
        </mxCell>
        <mxCell id="U3Yz26fhHiPG21KcbCNh-77" value="+ findRestaurant(n string): Restaurant*" style="text;strokeColor=none;fillColor=none;align=left;verticalAlign=top;spacingLeft=4;spacingRight=4;overflow=hidden;rotatable=0;points=[[0,0.5],[1,0.5]];portConstraint=eastwest;whiteSpace=wrap;html=1;" vertex="1" parent="KOUvDkR0qCRG5-3HSuHc-61">
          <mxGeometry y="1044" width="340" height="26" as="geometry" />
        </mxCell>
        <mxCell id="U3Yz26fhHiPG21KcbCNh-78" value="+ makeReservation(customer: Customer*): string" style="text;strokeColor=none;fillColor=none;align=left;verticalAlign=top;spacingLeft=4;spacingRight=4;overflow=hidden;rotatable=0;points=[[0,0.5],[1,0.5]];portConstraint=eastwest;whiteSpace=wrap;html=1;" vertex="1" parent="KOUvDkR0qCRG5-3HSuHc-61">
          <mxGeometry y="1070" width="340" height="26" as="geometry" />
        </mxCell>
        <mxCell id="U3Yz26fhHiPG21KcbCNh-79" value="+ isReservationEligible(): bool" style="text;strokeColor=none;fillColor=none;align=left;verticalAlign=top;spacingLeft=4;spacingRight=4;overflow=hidden;rotatable=0;points=[[0,0.5],[1,0.5]];portConstraint=eastwest;whiteSpace=wrap;html=1;" vertex="1" parent="KOUvDkR0qCRG5-3HSuHc-61">
          <mxGeometry y="1096" width="340" height="26" as="geometry" />
        </mxCell>
        <mxCell id="KOUvDkR0qCRG5-3HSuHc-70" value="+ checkAvailability(r: Restaurant*): int" style="text;strokeColor=none;fillColor=none;align=left;verticalAlign=top;spacingLeft=4;spacingRight=4;overflow=hidden;rotatable=0;points=[[0,0.5],[1,0.5]];portConstraint=eastwest;whiteSpace=wrap;html=1;" parent="KOUvDkR0qCRG5-3HSuHc-61" vertex="1">
          <mxGeometry y="1122" width="340" height="26" as="geometry" />
        </mxCell>
        <mxCell id="KOUvDkR0qCRG5-3HSuHc-92" value="" style="endArrow=none;html=1;rounded=0;exitX=0.5;exitY=1;exitDx=0;exitDy=0;entryX=0.48;entryY=-0.002;entryDx=0;entryDy=0;entryPerimeter=0;endFill=0;" parent="WIyWlLk6GJQsqaUBKTNV-1" source="zkfFHV4jXpPFQw0GAbJ--0" target="KOUvDkR0qCRG5-3HSuHc-0" edge="1">
          <mxGeometry relative="1" as="geometry">
            <mxPoint x="440" y="350" as="sourcePoint" />
            <mxPoint x="455" y="420" as="targetPoint" />
          </mxGeometry>
        </mxCell>
        <mxCell id="U3Yz26fhHiPG21KcbCNh-83" style="edgeStyle=orthogonalEdgeStyle;rounded=0;orthogonalLoop=1;jettySize=auto;html=1;entryX=0.808;entryY=-0.048;entryDx=0;entryDy=0;entryPerimeter=0;" edge="1" parent="WIyWlLk6GJQsqaUBKTNV-1" source="KOUvDkR0qCRG5-3HSuHc-41" target="zkfFHV4jXpPFQw0GAbJ--13">
          <mxGeometry relative="1" as="geometry" />
        </mxCell>
        <mxCell id="U3Yz26fhHiPG21KcbCNh-85" style="edgeStyle=orthogonalEdgeStyle;rounded=0;orthogonalLoop=1;jettySize=auto;html=1;exitX=0;exitY=0.5;exitDx=0;exitDy=0;entryX=0.5;entryY=1;entryDx=0;entryDy=0;" edge="1" parent="WIyWlLk6GJQsqaUBKTNV-1" source="U3Yz26fhHiPG21KcbCNh-20" target="zkfFHV4jXpPFQw0GAbJ--6">
          <mxGeometry relative="1" as="geometry">
            <Array as="points">
              <mxPoint x="1210" y="610" />
              <mxPoint x="110" y="610" />
            </Array>
          </mxGeometry>
        </mxCell>
        <mxCell id="U3Yz26fhHiPG21KcbCNh-86" style="edgeStyle=orthogonalEdgeStyle;rounded=0;orthogonalLoop=1;jettySize=auto;html=1;exitX=1;exitY=0.5;exitDx=0;exitDy=0;entryX=0.5;entryY=0;entryDx=0;entryDy=0;" edge="1" parent="WIyWlLk6GJQsqaUBKTNV-1" source="KOUvDkR0qCRG5-3HSuHc-73" target="zkfFHV4jXpPFQw0GAbJ--0">
          <mxGeometry relative="1" as="geometry">
            <mxPoint x="20" y="-180" as="targetPoint" />
          </mxGeometry>
        </mxCell>
        <mxCell id="U3Yz26fhHiPG21KcbCNh-88" style="edgeStyle=orthogonalEdgeStyle;rounded=0;orthogonalLoop=1;jettySize=auto;html=1;entryX=0.5;entryY=1;entryDx=0;entryDy=0;" edge="1" parent="WIyWlLk6GJQsqaUBKTNV-1" source="U3Yz26fhHiPG21KcbCNh-50" target="zkfFHV4jXpPFQw0GAbJ--17">
          <mxGeometry relative="1" as="geometry" />
        </mxCell>
      </root>
    </mxGraphModel>
  </diagram>
</mxfile>
